<?xml version="1.0" encoding="utf-8"?>
<!-- Generator: Adobe Illustrator 25.4.1, SVG Export Plug-In . SVG Version: 6.00 Build 0)  -->
<svg version="1.1" id="레이어_1" xmlns="http://www.w3.org/2000/svg" xmlns:xlink="http://www.w3.org/1999/xlink" x="0px"
	 y="0px" viewBox="0 0 244.3 56.7" style="enable-background:new 0 0 244.3 56.7;" xml:space="preserve">
<g>
	<path d="M5.1,43.8H0V1.1L5.1,0V43.8z M18.7,12.8l4,2.9l-9.8,12.3l11.3,13.6l-3.9,3L6.9,28.2L18.7,12.8z"/>
	<path d="M28,35.7c0-3.1,1-5.4,3.1-7c2-1.6,5-2.4,8.9-2.4h5.9v-1.9c0-4.7-2.1-7-6.2-7c-1.3,0-2.7,0.2-4.2,0.6
		c-1.5,0.4-2.8,0.8-4,1.4L30,15.7c1.5-0.8,3.1-1.5,4.9-2c1.7-0.5,3.5-0.7,5.1-0.7c7.1,0,10.7,3.8,10.7,11.4v19.3h-3.8l-0.6-3.3
		c-1.5,1.2-3.1,2.2-4.8,2.8c-1.7,0.7-3.3,1-4.9,1c-2.7,0-4.8-0.8-6.3-2.3C28.8,40.5,28,38.3,28,35.7z M37.5,40.2
		c0.7,0,1.4-0.1,2.2-0.3c0.8-0.2,1.5-0.4,2.3-0.7c0.8-0.3,1.5-0.7,2.1-1.1c0.7-0.4,1.3-0.9,1.8-1.4v-7.1h-5.3
		c-2.7,0-4.6,0.5-5.9,1.4c-1.2,0.9-1.8,2.4-1.8,4.4C32.8,38.6,34.4,40.2,37.5,40.2z"/>
	<path d="M65.7,43.8h-5.1V1.1L65.7,0V43.8z M79.3,12.8l4,2.9l-9.8,12.3l11.3,13.6l-3.9,3L67.6,28.2L79.3,12.8z"/>
	<path d="M88.7,35.7c0-3.1,1-5.4,3.1-7s5-2.4,8.9-2.4h5.9v-1.9c0-4.7-2.1-7-6.2-7c-1.3,0-2.7,0.2-4.2,0.6c-1.5,0.4-2.8,0.8-4,1.4
		l-1.5-3.6c1.5-0.8,3.1-1.5,4.9-2c1.7-0.5,3.5-0.7,5.1-0.7c7.1,0,10.7,3.8,10.7,11.4v19.3h-3.8l-0.6-3.3c-1.5,1.2-3.1,2.2-4.8,2.8
		c-1.7,0.7-3.3,1-4.9,1c-2.7,0-4.8-0.8-6.3-2.3C89.4,40.5,88.7,38.3,88.7,35.7z M98.1,40.2c0.7,0,1.4-0.1,2.2-0.3
		c0.8-0.2,1.5-0.4,2.3-0.7c0.8-0.3,1.5-0.7,2.1-1.1c0.7-0.4,1.3-0.9,1.8-1.4v-7.1h-5.3c-2.7,0-4.6,0.5-5.9,1.4
		c-1.2,0.9-1.8,2.4-1.8,4.4C93.5,38.6,95,40.2,98.1,40.2z"/>
	<path d="M133,13.1c4.2,0,7.5,1.4,9.9,4.1c2.4,2.7,3.6,6.6,3.6,11.7c0,5-1.2,8.9-3.6,11.5c-2.4,2.7-5.7,4-9.9,4
		c-4.2,0-7.5-1.3-9.9-4c-2.4-2.7-3.6-6.5-3.6-11.5c0-5.1,1.2-9,3.6-11.7C125.6,14.4,128.9,13.1,133,13.1z M133,17.2
		c-2.6,0-4.7,1-6.1,3c-1.4,2-2.1,4.9-2.1,8.7c0,3.8,0.7,6.7,2.1,8.6c1.4,1.9,3.5,2.9,6.1,2.9c2.7,0,4.7-1,6.2-2.9
		c1.4-1.9,2.1-4.8,2.1-8.6c0-3.8-0.7-6.7-2.1-8.7C137.8,18.2,135.7,17.2,133,17.2z"/>
	<path d="M162.1,44.1v11.3H154V13.6h5.7l1,2.6c1.7-1.7,4.3-3.5,8.5-3.5c7.9,0,11.6,5.9,11.6,15.5c0,10-5.8,16.4-14.1,16.4
		C165.1,44.6,163.9,44.5,162.1,44.1z M162.1,20.4v18.1c0.4,0.1,1.5,0.2,2.6,0.2c5.7,0,8-4,8-10.4c0-5.6-1.5-8.9-6.1-8.9
		C165.1,19.3,163.4,19.7,162.1,20.4z"/>
	<path d="M198.3,25.4h4.6v-1c0-3.3-1.9-4.9-5.1-4.9c-2.5,0-5.7,0.7-8.3,2l-2.2-5.4c2.9-2,7.3-3.4,11.2-3.4c7.7,0,11.9,4.1,11.9,11.9
		v19.2h-5.7l-0.8-2.5c-3.3,2.4-6.2,3.4-8.9,3.4c-5.9,0-9.2-3.5-9.2-9.5C185.8,28.8,190.2,25.4,198.3,25.4z M202.9,36v-5.5h-3.7
		c-4.1,0-6.2,1.5-6.2,4.5c0,2.3,1.2,3.4,3.5,3.4C198.7,38.4,201.5,37.3,202.9,36z"/>
	<path d="M234.8,40.7c-2.8,7.5-6.2,13-11.1,16l-5-4.6c2.9-2.5,4.9-4.9,6.7-8.2l-10.7-29.2l8-2.2l6.8,23.7l6.8-23.8l7.9,2.2
		L234.8,40.7z"/>
</g>
</svg>
