<?xml version="1.0" encoding="UTF-8"?>
<svg version="1.1" xmlns="http://www.w3.org/2000/svg" width="1253" height="218">
<path d="M0 0 C413.49 0 826.98 0 1253 0 C1253 71.94 1253 143.88 1253 218 C839.51 218 426.02 218 0 218 C0 146.06 0 74.12 0 0 Z " fill="#FEFEFE" transform="translate(0,0)"/>
<path d="M0 0 C61.05 0 122.1 0 185 0 C184.67 0.66 184.34 1.32 184 2 C182.08537964 2.02187378 182.08537964 2.02187378 180.13208008 2.04418945 C175.38879621 2.1022354 170.64598393 2.17946828 165.90307617 2.26245117 C163.85172184 2.29567083 161.80027675 2.32371197 159.7487793 2.34643555 C156.79697051 2.3800357 153.84599114 2.43235476 150.89453125 2.48828125 C149.97976517 2.49467117 149.06499908 2.5010611 148.12251282 2.50764465 C143.30116359 2.61854869 139.8867835 2.8151121 136 6 C134.40748357 9.18503287 134.60870239 12.5332405 135 16 C136.74253345 19.23613354 137.47185944 19.82395315 141 21 C143.80160502 21.1539263 146.58298425 21.25738045 149.38671875 21.31640625 C150.20372757 21.33718735 151.02073639 21.35796844 151.86250305 21.37937927 C154.47075034 21.44473079 157.07909775 21.50369273 159.6875 21.5625 C161.45639054 21.60569892 163.22527097 21.64931365 164.99414062 21.69335938 C169.32932463 21.80039743 173.66460929 21.90170544 178 22 C184.24264001 46.35922806 190.17619459 70.7947151 196.00906372 95.25488281 C196.79433627 98.54654964 197.58453223 101.83697552 198.37887573 105.12646484 C199.3290381 109.06266103 200.26889247 113.00118221 201.20113373 116.94165993 C201.55116181 118.41382893 201.90471715 119.8851642 202.26197052 121.35559654 C202.75491088 123.38748837 203.23482831 125.42204304 203.71166992 127.45776367 C203.98573166 128.60508469 204.2597934 129.7524057 204.54216003 130.93449402 C205.00310597 134.02079628 204.90097974 136.03201487 204 139 C203.525625 139.61875 203.05125 140.2375 202.5625 140.875 C198.30890702 146.65988645 198.71478654 152.83536538 199.40234375 159.7109375 C200.77160599 167.24635452 204.09207977 173.06161996 210.15234375 177.75 C213.01797878 179.688696 215.94317914 181.37801342 219 183 C218.84144531 183.69480469 218.68289062 184.38960937 218.51953125 185.10546875 C217.18418443 192.54525817 216.68544471 200.61180088 220.6640625 207.28515625 C224.22653726 211.85804051 228.39518574 215.30157144 234 217 C234 217.33 234 217.66 234 218 C156.78 218 79.56 218 0 218 C0 146.06 0 74.12 0 0 Z " fill="#FEFEFE" transform="translate(0,0)"/>
<path d="M0 0 C0.84129959 -0.00960754 1.68259918 -0.01921509 2.5493927 -0.02911377 C3.90879219 -0.03548859 3.90879219 -0.03548859 5.2956543 -0.04199219 C6.23160934 -0.04769226 7.16756439 -0.05339233 8.13188171 -0.05926514 C10.11313752 -0.06871201 12.09440901 -0.07524788 14.07568359 -0.07910156 C17.09785591 -0.08879656 20.11934502 -0.11981857 23.14135742 -0.15136719 C25.06778568 -0.15789857 26.9942188 -0.16314851 28.9206543 -0.16699219 C30.27094475 -0.18551239 30.27094475 -0.18551239 31.64851379 -0.20440674 C38.19328778 -0.18131961 42.35284275 1.0572497 47.43237305 5.41113281 C51.1328984 10.1791174 52.01650297 16.46916216 53.35327148 22.23486328 C54.03347575 25.1202459 54.80452651 27.98148363 55.55737305 30.84863281 C56.43372043 34.21884111 56.80737305 36.62539697 56.80737305 40.16113281 C57.57490213 40.15836743 58.34243122 40.15560205 59.13321877 40.15275288 C77.81186093 40.08648991 96.49047962 40.0368507 115.16921425 40.0056963 C124.20212654 39.99022968 133.23496035 39.96914407 142.26782227 39.93481445 C150.14118165 39.90490583 158.01448419 39.88555632 165.8878988 39.87886733 C170.05653887 39.87495755 174.22501634 39.86577331 178.39360428 39.84394264 C182.31863346 39.82355435 186.24343333 39.81730372 190.16851044 39.82180977 C191.60762911 39.82098561 193.04675558 39.8150338 194.4858284 39.80351639 C196.45425084 39.78853744 198.42279681 39.79397904 200.39126587 39.80036926 C202.0421971 39.79622119 202.0421971 39.79622119 203.72648048 39.79198933 C207.33661945 40.22454556 209.71421906 41.27054308 212.80737305 43.16113281 C218.53573965 51.75368272 213.6851875 65.88591052 211.8503418 75.49316406 C211.54293574 77.1406301 211.23625255 78.78823117 210.93025208 80.43595886 C210.29060527 83.86708478 209.64351426 87.29669312 208.99072266 90.7253418 C208.1573058 95.10504182 207.34095206 99.48771438 206.5298872 103.87160206 C205.9003126 107.26577888 205.26268458 110.65840372 204.62255287 114.05060387 C204.31851913 115.66601134 204.01673263 117.28184355 203.71730614 118.89811134 C203.29725128 121.15771796 202.86659224 123.41505604 202.43310547 125.67211914 C202.19105881 126.95274734 201.94901215 128.23337555 201.69963074 129.55281067 C200.37570731 134.90680457 199.28938636 138.87706531 195.03791809 142.5606842 C191.44369208 144.34130448 189.11223378 144.69717433 185.11865234 144.76831055 C184.14764934 144.79293082 184.14764934 144.79293082 183.15703011 144.81804848 C181.00261346 144.86709551 178.84896244 144.88756833 176.6940918 144.90722656 C175.14676184 144.93500021 173.59945415 144.96403962 172.0521698 144.99424744 C166.9707416 145.08390159 161.88944264 145.12712956 156.80737305 145.16113281 C155.49389263 145.17048733 155.49389263 145.17048733 154.15387726 145.18003082 C141.25742634 145.26700859 128.36153679 145.26085336 115.46490479 145.22979736 C110.62919578 145.21931946 105.79348091 145.21494901 100.95776367 145.20996094 C91.57428563 145.19943363 82.19083224 145.18251207 72.80737305 145.16113281 C71.05026803 150.01539181 70.39714245 153.08430267 71.80737305 158.16113281 C75.52025329 161.77881099 78.11375987 163.29309583 83.22149658 163.25447083 C84.14954605 163.25006485 85.07759552 163.24565887 86.0337677 163.24111938 C87.05508286 163.23123993 88.07639801 163.22136047 89.12866211 163.21118164 C90.20196274 163.2049025 91.27526337 163.19862335 92.38108826 163.19215393 C94.71813439 163.178276 97.05516896 163.16233415 99.39218903 163.14460182 C103.09053896 163.11803807 106.78882973 163.10012166 110.48724365 163.08512878 C121.00504131 163.04230326 131.52270167 162.99471653 142.0402832 162.91430664 C148.46811889 162.86579545 154.89578899 162.8367899 161.32378387 162.82056236 C163.77502194 162.81065672 166.22624172 162.79343453 168.67737579 162.76877785 C172.10795765 162.73504453 175.53777875 162.72614654 178.96850586 162.72290039 C180.48833321 162.69897217 180.48833321 162.69897217 182.03886414 162.67456055 C187.93541 162.70000599 191.32189647 163.21626768 195.80737305 167.16113281 C197.37672898 170.29984469 197.15938408 172.69969103 196.80737305 176.16113281 C194.35643076 179.14200856 192.01209307 181.0246528 188.80737305 183.16113281 C189.13737305 183.77988281 189.46737305 184.39863281 189.80737305 185.03613281 C191.8901293 191.54474611 191.56464682 197.26423273 188.68237305 203.47363281 C184.70738202 210.57739829 179.5627924 213.95477485 171.80737305 216.16113281 C168.99743583 216.54909253 166.24067161 216.5825462 163.40698242 216.56518555 C162.60911819 216.5720488 161.81125397 216.57891205 160.98921204 216.58598328 C158.37632989 216.6041452 155.76405419 216.60042963 153.15112305 216.59472656 C151.32083951 216.59929296 149.49055768 216.6045999 147.66027832 216.61061096 C143.83407603 216.61952085 140.00808272 216.6171426 136.18188477 216.60717773 C131.29281616 216.5956817 126.40446916 216.61592002 121.5154953 216.64509487 C117.73894719 216.66348948 113.96257107 216.66315808 110.18598938 216.65745735 C108.38396695 216.65730458 106.58193253 216.66331185 104.779953 216.67574883 C102.2554362 216.69072191 99.73224074 216.67993707 97.20776367 216.6628418 C96.10559258 216.67734375 96.10559258 216.67734375 94.9811554 216.69213867 C88.54545255 216.60144133 83.40965448 214.44152926 78.56518555 210.19628906 C78.02635742 209.5453125 77.4875293 208.89433594 76.93237305 208.22363281 C76.37807617 207.57523438 75.8237793 206.92683594 75.25268555 206.25878906 C72.15959311 201.76962517 71.55034759 198.0714775 71.61987305 192.66113281 C71.62631836 191.55769531 71.63276367 190.45425781 71.6394043 189.31738281 C71.78993148 186.48887199 72.16533143 183.91420726 72.80737305 181.16113281 C72.15510742 180.80921875 71.5028418 180.45730469 70.83081055 180.09472656 C63.52132006 175.9656191 57.40421167 171.44179957 54.3425293 163.30175781 C52.28637171 155.07712747 51.83825813 146.83160489 55.80737305 139.16113281 C56.33372345 138.55586258 56.86007385 137.95059235 57.40237427 137.32698059 C58.99787254 135.2942457 58.99787254 135.2942457 58.818573 133.03593445 C58.63811432 132.2338002 58.45765564 131.43166595 58.27172852 130.60522461 C58.06030212 129.62943451 57.84887573 128.65364441 57.63104248 127.64828491 C57.35923157 126.49752472 57.08742065 125.34676453 56.80737305 124.16113281 C56.49325232 122.77558419 56.18018754 121.38979589 55.86798096 120.0038147 C54.73386554 115.01412532 53.55609628 110.03504313 52.37768555 105.05566406 C51.94150908 103.2040448 51.50554919 101.35237451 51.0697937 99.50065613 C50.15867246 95.63146075 49.24572171 91.76270351 48.33129883 87.89428711 C47.16997365 82.98120659 46.01201498 78.06734089 44.85530281 73.15317249 C43.9553629 69.33066358 43.05420717 65.50844215 42.15264511 61.68631554 C41.72589561 59.87701393 41.29936718 58.06766016 40.87308121 56.25824928 C40.27173241 53.70713746 39.66913689 51.15632537 39.06567383 48.60571289 C38.87638369 47.80505307 38.68709354 47.00439325 38.49206734 46.17947102 C37.56384015 42.27288588 36.61487227 38.37304075 35.62615967 34.48129272 C35.34516828 33.37459874 35.34516828 33.37459874 35.05850029 32.24554729 C34.54865295 30.24906172 34.03318289 28.25401441 33.51730347 26.25907898 C32.80737305 23.16113281 32.80737305 23.16113281 32.80737305 20.16113281 C31.71271729 20.17684326 30.61806152 20.19255371 29.49023438 20.20874023 C25.41820674 20.26315391 21.34621108 20.29752437 17.27392578 20.32592773 C15.51345409 20.34098834 13.75301975 20.36144107 11.99267578 20.38745117 C9.45815802 20.4239551 6.92413753 20.44088636 4.3894043 20.45410156 C3.60588089 20.46958542 2.82235748 20.48506927 2.01509094 20.50102234 C-2.58225969 20.50242934 -5.56602548 20.05944658 -9.19262695 17.16113281 C-11.6519144 13.47220165 -11.88568274 10.4447186 -11.19262695 6.16113281 C-8.18690246 1.28978623 -5.58199751 0.0515658 0 0 Z " fill="#0170FE" transform="translate(145.192626953125,1.8388671875)"/>
<path d="M0 0 C6.27 0 12.54 0 19 0 C19 37.62 19 75.24 19 114 C12.73 114 6.46 114 0 114 C-0.495 109.545 -0.495 109.545 -1 105 C-1.59167969 105.55429688 -2.18335938 106.10859375 -2.79296875 106.6796875 C-3.58316406 107.40414062 -4.37335938 108.12859375 -5.1875 108.875 C-6.35345703 109.95394531 -6.35345703 109.95394531 -7.54296875 111.0546875 C-13.04766416 115.41293602 -19.82322414 116.42368345 -26.73828125 116.265625 C-36.50779799 115.11825516 -43.55170313 110.19494177 -50 103 C-59.51832139 90.54987497 -60.35320737 76.13842144 -59 61 C-58.19463481 56.94132347 -56.99335945 53.61528545 -55 50 C-54.56429688 49.2059375 -54.12859375 48.411875 -53.6796875 47.59375 C-48.68114286 39.39941452 -42.34367846 33.63534993 -33.13671875 30.65625 C-24.79994288 28.91206775 -15.40971025 28.36893109 -8 33 C-5.69 34.98 -3.38 36.96 -1 39 C-0.67 26.13 -0.34 13.26 0 0 Z " fill="#010101" transform="translate(1084,41)"/>
<path d="M0 0 C9.36291572 5.76541958 15.16238038 13.59662547 18.7265625 23.87890625 C19.82399595 28.52189391 19.98444506 32.80599909 19.953125 37.55859375 C19.94748535 38.44788574 19.9418457 39.33717773 19.93603516 40.25341797 C19.72267104 51.7645175 16.51750675 61.43388742 8.53125 70.01171875 C-0.72503654 78.6296407 -10.96732901 82.39342857 -23.66015625 82.0546875 C-35.10536957 80.74618988 -45.47809045 75.95502105 -52.734375 66.87109375 C-60.81851506 55.01892231 -62.75121022 42.22405727 -60.671875 28.18359375 C-58.53327295 17.87143043 -53.19331583 9.73580641 -45.359375 2.74609375 C-32.07877296 -5.91164223 -14.13779556 -7.51362976 0 0 Z " fill="#0170FE" transform="translate(640.359375,75.25390625)"/>
<path d="M0 0 C5.91103251 5.3475892 10.03753573 11.20178672 12 19 C12 20.65 12 22.3 12 24 C5.73 24 -0.54 24 -7 24 C-7.99 21.69 -8.98 19.38 -10 17 C-14.76692487 11.79971832 -21.76521071 10.34050414 -28.5625 9.625 C-34.31909309 10.25299197 -39.87576303 11.35523992 -44.0625 15.625 C-46.53845351 19.93795127 -46.6178984 23.145084 -46 28 C-45.90976562 28.70898438 -45.81953125 29.41796875 -45.7265625 30.1484375 C-45.15094135 32.14397514 -45.15094135 32.14397514 -43.24609375 33.13671875 C-42.13427734 33.56404297 -42.13427734 33.56404297 -41 34 C-40.24847656 34.29519531 -39.49695313 34.59039062 -38.72265625 34.89453125 C-32.94426005 36.88854462 -27.22447424 38.437265 -21.26000977 39.76000977 C-9.22290464 42.44213872 3.4116391 45.34670225 11 56 C15.39736205 63.66584907 16.2268606 71.19881808 14.41015625 79.7890625 C11.53387932 89.1999225 4.88485127 97.23350427 -3.80322266 101.95043945 C-11.28304545 105.52409562 -18.66048534 106.52833184 -26.875 106.4375 C-28.32072388 106.42614014 -28.32072388 106.42614014 -29.7956543 106.41455078 C-43.06826686 106.10794123 -53.06439474 101.60949464 -62.8125 92.6875 C-68.70468602 86.48088178 -69.94784229 80.4172617 -71 72 C-64.07 72 -57.14 72 -50 72 C-49.01 74.64 -48.02 77.28 -47 80 C-43.08955504 85.33242495 -38.28771167 86.84620938 -32 88 C-24.97209868 88.72157074 -18.37131118 88.23683078 -12 85 C-8.83999344 82.3666612 -7.2978744 80.89362319 -6 77 C-5.60689808 71.79139959 -5.86958872 68.26874265 -9 64 C-15.68235607 59.92697208 -23.44667121 58.57649752 -31 57 C-42.56109629 54.58701889 -54.84404676 51.8121234 -62.5390625 42.046875 C-67.59058721 34.30711199 -68.90606995 27.18847863 -68 18 C-65.97466954 9.19365808 -60.74918916 2.27119667 -53.3515625 -2.82421875 C-37.02668738 -12.26703867 -15.12996715 -11.8453418 0 0 Z " fill="#0170FE" transform="translate(467,50)"/>
<path d="M0 0 C7.5443133 6.15008702 11.87606988 15.06784941 13.75 24.4375 C13.75 29.7175 13.75 34.9975 13.75 40.4375 C-4.73 40.4375 -23.21 40.4375 -42.25 40.4375 C-40.29458799 49.23685405 -38.7691303 55.454874 -31.125 60.5 C-24.40703107 62.12531506 -17.9675302 62.82010308 -11.6875 59.625 C-9.33995864 57.6172372 -9.33995864 57.6172372 -7.87573242 55.8190918 C-5.74646873 54.00958538 -4.56486044 54.08887865 -1.80078125 54.14453125 C-0.95322266 54.15419922 -0.10566406 54.16386719 0.76757812 54.17382812 C1.64865234 54.19896484 2.52972656 54.22410156 3.4375 54.25 C4.33017578 54.26353516 5.22285156 54.27707031 6.14257812 54.29101562 C8.34566166 54.32635921 10.54752582 54.37569507 12.75 54.4375 C11.77188524 61.29652975 7.77732777 66.87919484 2.53125 71.3125 C-7.51041916 78.19035559 -17.11451002 80.3909055 -29.25 79.4375 C-40.17686614 77.22277499 -48.80930895 71.56181232 -55.25 62.4375 C-62.03200415 51.24620451 -64.02546589 38.35159786 -61.71484375 25.44921875 C-58.88044033 14.25100195 -53.59302806 4.14649896 -43.58203125 -2.2734375 C-29.6703027 -9.38341989 -13.09067546 -8.60244388 0 0 Z " fill="#010101" transform="translate(914.25,77.5625)"/>
<path d="M0 0 C6.6 0 13.2 0 20 0 C20.495 19.8 20.495 19.8 21 40 C22.98 37.525 22.98 37.525 25 35 C32.09041187 29.7132894 39.43309135 29.27486868 48 30 C56.47200627 31.86271926 62.99146119 35.81881401 68.30859375 42.69140625 C73.61468819 51.06842714 73.27745814 60.79540041 73.1953125 70.34765625 C73.1924826 71.60009628 73.18965271 72.85253632 73.18673706 74.14292908 C73.17749154 77.44238106 73.15958161 80.74163072 73.1373291 84.04101562 C73.11672119 87.41989693 73.10770368 90.79880808 73.09765625 94.17773438 C73.07568627 100.78524436 73.04120325 107.39258309 73 114 C66.4 114 59.8 114 53 114 C52.98541748 112.36530762 52.97083496 110.73061523 52.95581055 109.04638672 C52.89778522 102.97438822 52.82055153 96.9027589 52.73754883 90.83105469 C52.70431962 88.20448809 52.6762815 85.57785043 52.65356445 82.95117188 C52.61998272 79.17286939 52.56766247 75.39521695 52.51171875 71.6171875 C52.50532883 70.44509735 52.4989389 69.2730072 52.49235535 68.06539917 C52.36487769 60.97678537 51.81170219 56.15251457 46.9375 50.6875 C42.1278574 47.92451383 37.12805554 47.18724027 31.71484375 48.59375 C26.41275815 50.89297217 24.32578556 53.79024034 22 59 C21.04971599 62.08369354 20.85047747 64.91530016 20.79467773 68.13574219 C20.77473251 69.15649841 20.75478729 70.17725464 20.73423767 71.22894287 C20.70916893 72.87131927 20.70916893 72.87131927 20.68359375 74.546875 C20.66281265 75.6732135 20.64203156 76.799552 20.62062073 77.96002197 C20.55525667 81.55661949 20.49630115 85.15328977 20.4375 88.75 C20.3943023 91.1888096 20.3506876 93.62761184 20.30664062 96.06640625 C20.19958866 102.04419634 20.09828396 108.02205958 20 114 C13.4 114 6.8 114 0 114 C0 76.38 0 38.76 0 0 Z " fill="#006FFE" transform="translate(495,41)"/>
<path d="M0 0 C23.1 0 46.2 0 70 0 C70 6.27 70 12.54 70 19 C53.5 19 37 19 20 19 C20 28.24 20 37.48 20 47 C33.86 47 47.72 47 62 47 C62 52.94 62 58.88 62 65 C48.14 65 34.28 65 20 65 C20 80.51 20 96.02 20 112 C13.4 112 6.8 112 0 112 C0 75.04 0 38.08 0 0 Z " fill="#000000" transform="translate(675,43)"/>
<path d="M0 0 C0.70181396 0.00757324 1.40362793 0.01514648 2.12670898 0.02294922 C7.93119249 0.20683504 12.29824565 1.23965032 17.125 4.4375 C17.75792969 4.85 18.39085937 5.2625 19.04296875 5.6875 C25.06113291 10.20433109 28.64962092 17.11130648 30.125 24.4375 C30.21155742 26.42327938 30.24270115 28.41175351 30.23852539 30.39941406 C30.23841209 32.20082855 30.23841209 32.20082855 30.23829651 34.03863525 C30.23313522 35.33041687 30.22797394 36.62219849 30.22265625 37.953125 C30.22079017 39.29262235 30.21936716 40.63212038 30.21836853 41.97161865 C30.21455835 45.48972472 30.20474091 49.00778921 30.19366455 52.52587891 C30.18341817 56.11880939 30.178864 59.71174661 30.17382812 63.3046875 C30.16311725 70.34897692 30.14553262 77.39323137 30.125 84.4375 C23.855 84.4375 17.585 84.4375 11.125 84.4375 C11.11041748 82.87386719 11.09583496 81.31023437 11.08081055 79.69921875 C11.02267219 73.8768877 10.94543947 68.05493709 10.86254883 62.23291016 C10.82937264 59.71702262 10.80131816 57.20106197 10.77856445 54.68505859 C10.74488482 51.06055656 10.69256009 47.43672021 10.63671875 43.8125 C10.63032883 42.69447998 10.6239389 41.57645996 10.61735535 40.42456055 C10.47996963 33.06395759 10.17269792 26.40900547 4.625 21 C0.26137566 18.27273479 -3.83681887 17.91169362 -8.875 18.4375 C-13.57284081 20.15401876 -16.15086044 22.25399996 -18.875 26.4375 C-21.47823645 32.25284164 -21.22378181 38.14532167 -21.2890625 44.3984375 C-21.30842865 45.54414215 -21.3277948 46.6898468 -21.3477478 47.87026978 C-21.40736785 51.51760491 -21.45385918 55.1649719 -21.5 58.8125 C-21.5381959 61.29037809 -21.57724857 63.76824314 -21.6171875 66.24609375 C-21.71305518 72.30978944 -21.79715153 78.37354728 -21.875 84.4375 C-28.475 84.4375 -35.075 84.4375 -41.875 84.4375 C-41.875 57.0475 -41.875 29.6575 -41.875 1.4375 C-35.275 1.4375 -28.675 1.4375 -21.875 1.4375 C-21.875 4.7375 -21.875 8.0375 -21.875 11.4375 C-20.3590625 9.5503125 -20.3590625 9.5503125 -18.8125 7.625 C-13.85754896 1.45659156 -7.68338015 -0.11659712 0 0 Z " fill="#000000" transform="translate(981.875,70.5625)"/>
<path d="M0 0 C0.7321875 0.00064453 1.464375 0.00128906 2.21875 0.00195312 C7.609375 0.046875 7.609375 0.046875 8.75 1.1875 C8.83651611 2.60320123 8.85704904 4.023095 8.84765625 5.44140625 C8.84443359 6.29541016 8.84121094 7.14941406 8.83789062 8.02929688 C8.82532227 9.37604492 8.82532227 9.37604492 8.8125 10.75 C8.80798828 11.65169922 8.80347656 12.55339844 8.79882812 13.48242188 C8.78700225 15.71751314 8.7705222 17.95247437 8.75 20.1875 C6.90535156 20.11789063 6.90535156 20.11789063 5.0234375 20.046875 C3.3906494 20.00933964 1.75783489 19.97294138 0.125 19.9375 C-0.68324219 19.90398437 -1.49148438 19.87046875 -2.32421875 19.8359375 C-7.78851525 19.74708715 -11.08576715 20.30413916 -15.25 24.1875 C-19.73912626 30.49650907 -19.85094696 36.8245592 -19.859375 44.34375 C-19.87591125 45.48662476 -19.89244751 46.62949951 -19.90948486 47.80700684 C-19.95781605 51.43389338 -19.97930375 55.06036104 -20 58.6875 C-20.02817197 61.1562709 -20.0581011 63.62502242 -20.08984375 66.09375 C-20.1635717 72.12496551 -20.21323772 78.15595049 -20.25 84.1875 C-26.85 84.1875 -33.45 84.1875 -40.25 84.1875 C-40.25 56.7975 -40.25 29.4075 -40.25 1.1875 C-33.98 1.1875 -27.71 1.1875 -21.25 1.1875 C-20.92 4.1575 -20.59 7.1275 -20.25 10.1875 C-19.57904297 9.35605469 -19.57904297 9.35605469 -18.89453125 8.5078125 C-18.28996094 7.78335938 -17.68539062 7.05890625 -17.0625 6.3125 C-16.47082031 5.59320313 -15.87914062 4.87390625 -15.26953125 4.1328125 C-10.77712434 -0.19449629 -5.96226821 -0.10187329 0 0 Z " fill="#030303" transform="translate(798.25,70.8125)"/>
<path d="M0 0 C5.405381 3.21079632 8.86206512 8.0235409 10.890625 13.91015625 C13.33221041 23.87487671 12.52412876 32.95859167 7.953125 42.16015625 C5.21671627 46.6445719 1.97816331 49.51559826 -3.046875 51.16015625 C-10.04511533 52.04850834 -15.65872669 51.862605 -21.43359375 47.5703125 C-27.36750401 42.38352896 -29.67256827 36.53549845 -30.3359375 28.78125 C-30.56799422 19.00322377 -29.35721677 10.91286185 -23.046875 3.16015625 C-15.81900849 -2.2976205 -8.39484194 -3.55293507 0 0 Z " fill="#FBFDFE" transform="translate(629.046875,88.83984375)"/>
<path d="M0 0 C6.6 0 13.2 0 20 0 C20 27.39 20 54.78 20 83 C13.4 83 6.8 83 0 83 C0 55.61 0 28.22 0 0 Z " fill="#020202" transform="translate(819,72)"/>
<path d="M0 0 C3.5625 1.6875 3.5625 1.6875 6 4 C6.721875 4.680625 7.44375 5.36125 8.1875 6.0625 C13.51954376 14.70408816 14.05609876 24.83402235 12.3125 34.625 C10.78535299 40.65883258 7.86667571 45.17885296 3.4375 49.5 C-2.16324794 51.94396274 -8.34274439 52.2190852 -14.19140625 50.26953125 C-19.80823175 47.29734497 -23.4027385 42.66524612 -25.45703125 36.6953125 C-27.25239852 27.78305771 -27.30604109 17.33746444 -23.34765625 9.0234375 C-17.39124347 0.08018584 -10.2001597 -0.89453288 0 0 Z " fill="#FDFDFD" transform="translate(1071,88)"/>
<path d="M0 0 C10.56 0 21.12 0 32 0 C31.67 1.65 31.34 3.3 31 5 C30.12397076 13.1470719 31.37789641 19.17507569 36 26 C39.50762649 29.59993245 43.38946601 31.19194746 48 33 C48 33.33 48 33.66 48 34 C27.21 34 6.42 34 -15 34 C-12 32 -12 32 -9.9140625 30.84375 C-3.55090257 27.10837967 -0.20522543 23.08669531 2 16 C2.91691804 10.01076942 1.70098829 5.95345903 0 0 Z " fill="#FCFEFE" transform="translate(260,184)"/>
<path d="M0 0 C12.21 0 24.42 0 37 0 C37 10.125 37 10.125 36.5625 14.03515625 C36.48128906 14.78418213 36.40007812 15.53320801 36.31640625 16.30493164 C36.21199219 17.2149292 36.10757813 18.12492676 36 19.0625 C35.67 22.011875 35.34 24.96125 35 28 C24.11 28 13.22 28 2 28 C1.34 18.76 0.68 9.52 0 0 Z " fill="#FBFEFE" transform="translate(258,61)"/>
<path d="M0 0 C11.88 0 23.76 0 36 0 C37.08995648 3.26986945 37.32294417 6.06256395 37.5625 9.5 C37.64628906 10.6446875 37.73007813 11.789375 37.81640625 12.96875 C38.04437456 17.97435194 38 22.98920961 38 28 C27.44 28 16.88 28 6 28 C0 5.5 0 5.5 0 0 Z " fill="#FCFEFE" transform="translate(207,61)"/>
<path d="M0 0 C10.23 0 20.46 0 31 0 C30.23570044 9.93589434 29.06317892 18.40173287 27 28 C17.43 28 7.86 28 -2 28 C-2 21.27138518 -1.81414999 14.99248149 -1 8.375 C-0.67 5.61125 -0.34 2.8475 0 0 Z " fill="#FCFEFE" transform="translate(310,61)"/>
<path d="M0 0 C10.23 0 20.46 0 31 0 C31.66 8.91 32.32 17.82 33 27 C24.09 27 15.18 27 6 27 C5.01 22.91625 4.02 18.8325 3 14.625 C2.68675781 13.33803223 2.37351563 12.05106445 2.05078125 10.72509766 C1.80714844 9.71495605 1.56351563 8.70481445 1.3125 7.6640625 C1.06113281 6.62717285 0.80976563 5.5902832 0.55078125 4.52197266 C0 2 0 2 0 0 Z " fill="#F9FDFE" transform="translate(216,103)"/>
<path d="M0 0 C0.96548281 3.86193122 0.95881678 5.40134316 0.2578125 9.16796875 C0.07863281 10.14314453 -0.10054688 11.11832031 -0.28515625 12.12304688 C-0.47980469 13.13431641 -0.67445313 14.14558594 -0.875 15.1875 C-1.06191406 16.21037109 -1.24882812 17.23324219 -1.44140625 18.28710938 C-2.85815051 25.85815051 -2.85815051 25.85815051 -4 27 C-5.92667507 27.08748207 -7.85651861 27.10697334 -9.78515625 27.09765625 C-10.95498047 27.09443359 -12.12480469 27.09121094 -13.33007812 27.08789062 C-15.17762695 27.07532227 -15.17762695 27.07532227 -17.0625 27.0625 C-18.91584961 27.05573242 -18.91584961 27.05573242 -20.80664062 27.04882812 C-23.87114117 27.03699608 -26.93554721 27.02051173 -30 27 C-28.58646617 4.17293233 -28.58646617 4.17293233 -27 1 C-18.09 0.67 -9.18 0.34 0 0 Z " fill="#FCFEFE" transform="translate(333,102)"/>
<path d="M0 0 C9.9 0 19.8 0 30 0 C29.34 8.58 28.68 17.16 28 26 C19.42 26 10.84 26 2 26 C1.34 17.42 0.68 8.84 0 0 Z " fill="#FBFEFE" transform="translate(261,103)"/>
<path d="M0 0 C2.22860987 0.00097224 4.45377195 -0.04065957 6.68188477 -0.08496094 C8.10570575 -0.09016873 9.52953864 -0.09285612 10.95336914 -0.09277344 C12.24235107 -0.09986328 13.53133301 -0.10695312 14.859375 -0.11425781 C19.17758892 0.65767232 20.67397311 2.04550099 23.30102539 5.50097656 C23.36492516 9.20716292 23.31181618 11.44878872 20.68554688 14.18261719 C15.88852205 16.83480661 9.97372892 16.0185196 4.60205078 16.00195312 C2.37344091 16.00098089 0.14827883 16.04261269 -2.07983398 16.08691406 C-3.50365497 16.09212186 -4.92748786 16.09480924 -6.35131836 16.09472656 C-7.64030029 16.10181641 -8.92928223 16.10890625 -10.25732422 16.11621094 C-14.57553814 15.34428081 -16.07192233 13.95645214 -18.69897461 10.50097656 C-18.76287437 6.7947902 -18.7097654 4.5531644 -16.08349609 1.81933594 C-11.28647127 -0.83285348 -5.37167814 -0.01656647 0 0 Z " fill="#006BFD" transform="translate(147.698974609375,52.4990234375)"/>
<path d="M0 0 C1.04269043 -0.00574036 1.04269043 -0.00574036 2.10644531 -0.01159668 C3.57228041 -0.0143118 5.03816428 -0.00697835 6.50390625 0.00976562 C8.74328975 0.03118581 10.97946587 0.00995557 13.21875 -0.015625 C14.64584039 -0.01298165 16.07292879 -0.0078565 17.5 0 C19.44132812 0.00676758 19.44132812 0.00676758 21.421875 0.01367188 C24.75 0.53125 24.75 0.53125 27.16796875 2.34570312 C28.75 4.53125 28.75 4.53125 29.3125 8.03125 C28.75 11.53125 28.75 11.53125 26.66040039 13.71679688 C23.06256555 15.9598225 20.84134557 16.04723195 16.62109375 16.0625 C15.94957779 16.0663269 15.27806183 16.07015381 14.5861969 16.07409668 C13.17341605 16.07680691 11.76058426 16.06950788 10.34790039 16.05273438 C8.18977909 16.03127266 6.03497293 16.05257758 3.87695312 16.078125 C2.49999269 16.07548222 1.1230343 16.07035825 -0.25390625 16.0625 C-1.49986572 16.05798828 -2.7458252 16.05347656 -4.02954102 16.04882812 C-7.81450311 15.44052552 -9.01304324 14.59837159 -11.25 11.53125 C-11.79876203 7.68991579 -11.97970045 5.54181287 -9.671875 2.34570312 C-6.35899502 -0.13628518 -4.1135348 0.01434001 0 0 Z " fill="#0073FE" transform="translate(149.25,83.46875)"/>
<path d="M0 0 C0.65214981 -0.00619858 1.30429962 -0.01239716 1.97621155 -0.01878357 C3.35383615 -0.02587852 4.73154655 -0.02271306 6.10913086 -0.01000977 C8.21303917 0.00384293 10.31248435 -0.030185 12.41601562 -0.06835938 C13.7565115 -0.0693108 15.09701293 -0.06745049 16.4375 -0.0625 C17.65429443 -0.0632251 18.87108887 -0.0639502 20.12475586 -0.06469727 C23.28515625 0.56640625 23.28515625 0.56640625 25.71313477 2.87915039 C27.28515625 5.56640625 27.28515625 5.56640625 27.28515625 9.19140625 C26.15736972 12.99768579 25.6515852 13.66962338 22.28515625 15.56640625 C17.64191552 16.2000279 12.96692011 16.02975936 8.28515625 16.00390625 C7.00125 16.02388672 5.71734375 16.04386719 4.39453125 16.06445312 C3.1621875 16.06380859 1.92984375 16.06316406 0.66015625 16.0625 C-0.46648437 16.06435303 -1.593125 16.06620605 -2.75390625 16.06811523 C-6.36637005 15.45600993 -7.54746754 14.47735622 -9.71484375 11.56640625 C-10.16157327 7.99257009 -10.25101195 5.62326148 -8.60717773 2.38305664 C-5.84390384 -0.26970056 -3.78046895 0.03382353 0 0 Z " fill="#016DFE" transform="translate(158.71484375,114.43359375)"/>
<path d="M0 0 C3.63017391 2.20455905 6.09047798 5.37890311 7.9296875 9.171875 C8.4246875 12.636875 8.4246875 12.636875 8.9296875 16.171875 C-3.2803125 16.171875 -15.4903125 16.171875 -28.0703125 16.171875 C-23.75213068 3.21732955 -23.75213068 3.21732955 -16.6953125 -0.703125 C-10.76444154 -2.54374013 -5.71019353 -2.3551771 0 0 Z " fill="#FCFCFC" transform="translate(900.0703125,88.828125)"/>
<path d="M0 0 C3.04248532 2.68870796 4.40358379 4.52325136 5.6875 8.375 C5.6875 12.59979693 4.9846437 15.37460108 2.4375 18.6875 C-0.2739331 21.33730962 -1.64726002 22.58959143 -5.3125 23.375 C-11.41811978 23.26398873 -14.10419162 21.48311056 -18.3125 17.375 C-20.16360583 13.67278834 -19.77704795 9.41593083 -19.3125 5.375 C-14.93992134 -2.12084914 -7.66127478 -3.75836121 0 0 Z " fill="#030303" transform="translate(836.3125,38.625)"/>
<path d="M0 0 C2 2 2 2 2.375 5.9375 C2.28694468 8.79152833 2.23484076 9.69940383 0.4375 12 C-2.98373035 13.40358168 -5.33851392 13.52306944 -9 13 C-11.5 10.875 -11.5 10.875 -13 8 C-12.93421001 4.71050054 -12.62175386 2.81958464 -10.625 0.1875 C-6.67964475 -2.69564422 -4.25349703 -1.7194988 0 0 Z " fill="#F7FCFE" transform="translate(318,189)"/>
<path d="M0 0 C2.375 1.5625 2.375 1.5625 4 4 C4.42213381 7.43737531 4.60856522 9.82090489 3 12.9375 C-0.25564162 14.66705961 -3.46834763 14.75171717 -7 14 C-9.5625 11.875 -9.5625 11.875 -11 9 C-11 5.47602562 -10.68152223 3.75724692 -8.3125 1.125 C-5.26389315 -0.35810604 -3.35257076 -0.48891657 0 0 Z " fill="#F9FDFD" transform="translate(243,188)"/>
<path d="M0 0 C1.04269043 -0.00574036 1.04269043 -0.00574036 2.10644531 -0.01159668 C3.57228041 -0.0143118 5.03816428 -0.00697835 6.50390625 0.00976562 C8.74328975 0.03118581 10.97946587 0.00995557 13.21875 -0.015625 C14.64584039 -0.01298165 16.07292879 -0.0078565 17.5 0 C19.44132812 0.00676758 19.44132812 0.00676758 21.421875 0.01367188 C24.75 0.53125 24.75 0.53125 27.1875 2.39257812 C29.07603876 4.97751555 29.09797414 6.39948276 28.75 9.53125 C26.75 6.53125 26.75 6.53125 25.75 3.53125 C21.06860746 3.50659712 16.38725241 3.48841261 11.70581055 3.47631836 C10.11205386 3.47127843 8.51830181 3.4644465 6.92456055 3.45581055 C4.63849747 3.44373001 2.35249533 3.43801845 0.06640625 3.43359375 C-1.0086039 3.42585182 -1.0086039 3.42585182 -2.10533142 3.41795349 C-3.82063672 3.41775737 -5.53581266 3.46932993 -7.25 3.53125 C-8.66577477 4.71549326 -8.66577477 4.71549326 -8.3125 8.09375 C-8.291875 9.228125 -8.27125 10.3625 -8.25 11.53125 C-4.65735167 13.77859928 -1.69857927 13.76325508 2.484375 13.7265625 C4.42763672 13.71689453 4.42763672 13.71689453 6.41015625 13.70703125 C7.77344019 13.69032193 9.13672144 13.67339206 10.5 13.65625 C11.87889985 13.6462134 13.25780665 13.63708873 14.63671875 13.62890625 C18.00798882 13.60533093 21.37890636 13.5724227 24.75 13.53125 C24.75 12.87125 24.75 12.21125 24.75 11.53125 C25.74 11.20125 26.73 10.87125 27.75 10.53125 C26 14.40625 26 14.40625 23.75 15.53125 C19.36153515 15.78937405 14.96931056 15.8022509 10.57421875 15.82641602 C8.3899869 15.84363187 6.20726825 15.88752034 4.0234375 15.93164062 C2.63282362 15.94176777 1.24219689 15.95028381 -0.1484375 15.95703125 C-2.04601807 15.97890503 -2.04601807 15.97890503 -3.98193359 16.0012207 C-7.25 15.53125 -7.25 15.53125 -9.66259766 13.72338867 C-11.97940668 10.52396877 -11.79991262 8.38063836 -11.25 4.53125 C-8.05320194 0.1040012 -5.27980464 0.01840569 0 0 Z " fill="#0150FC" transform="translate(149.25,83.46875)"/>
<path d="M0 0 C0.84129959 -0.00960754 1.68259918 -0.01921509 2.5493927 -0.02911377 C3.90879219 -0.03548859 3.90879219 -0.03548859 5.2956543 -0.04199219 C6.23160934 -0.04769226 7.16756439 -0.05339233 8.13188171 -0.05926514 C10.11313752 -0.06871201 12.09440901 -0.07524788 14.07568359 -0.07910156 C17.09785591 -0.08879656 20.11934502 -0.11981857 23.14135742 -0.15136719 C25.06778568 -0.15789857 26.9942188 -0.16314851 28.9206543 -0.16699219 C30.27094475 -0.18551239 30.27094475 -0.18551239 31.64851379 -0.20440674 C38.19328778 -0.18131961 42.35284275 1.0572497 47.43237305 5.41113281 C52.04462828 11.30705779 54.18802376 21.8159839 53.80737305 29.16113281 C51.30679601 26.66055577 51.09831567 24.89961797 50.30737305 21.47363281 C49.91485352 19.85714844 49.91485352 19.85714844 49.5144043 18.20800781 C49.11202281 16.47398814 48.72404832 14.73610028 48.3815918 12.98925781 C47.5125885 9.02168719 45.92582161 6.72040277 42.75006104 4.2020874 C38.85314722 2.11399588 34.61630302 2.53604362 30.29956055 2.63769531 C29.29651886 2.64239838 28.29347717 2.64710144 27.26004028 2.65194702 C24.06677586 2.67323152 20.87519104 2.72981445 17.68237305 2.78613281 C15.52744081 2.80264694 13.37249079 2.8169932 11.2175293 2.82910156 C7.27443922 2.8630027 3.33153912 2.8979954 -0.61108398 2.96826172 C-1.40128937 2.98112213 -2.19149475 2.99398254 -3.00564575 3.00723267 C-5.17599007 3.15996206 -7.10391056 3.5663919 -9.19262695 4.16113281 C-6.55124417 0.19905864 -4.47478718 0.04133753 0 0 Z " fill="#035FFC" transform="translate(145.192626953125,1.8388671875)"/>
<path d="M0 0 C10.56 0 21.12 0 32 0 C31.67 3.3 31.34 6.6 31 10 C30.67 10 30.34 10 30 10 C30 7.36 30 4.72 30 2 C19.77 2 9.54 2 -1 2 C-0.67 1.34 -0.34 0.68 0 0 Z " fill="#025CFD" transform="translate(261,101)"/>
<path d="M0 0 C3.69230769 0.69230769 3.69230769 0.69230769 5 2 C5 3.98 5 5.96 5 8 C-1.6 8 -8.2 8 -15 8 C-15 7.67 -15 7.34 -15 7 C-8.565 6.505 -8.565 6.505 -2 6 C-1.67 4.35 -1.34 2.7 -1 1 C-0.67 0.67 -0.34 0.34 0 0 Z " fill="#CBE5F0" transform="translate(332,81)"/>
<path d="M0 0 C1.2684375 0.433125 1.2684375 0.433125 2.5625 0.875 C4.2640625 1.431875 4.2640625 1.431875 6 2 C7.051875 2.37125 8.10375 2.7425 9.1875 3.125 C16.89972456 4.89501875 23.76544049 4.57842804 31.125 1.65625 C33 1 33 1 36 1 C30.4244108 5.72989581 26.79201951 6.75265994 19.5625 6.5 C18.75490234 6.50257813 17.94730469 6.50515625 17.11523438 6.5078125 C11.47901677 6.41697902 7.11388452 5.40120381 2 3 C1.34 2.01 0.68 1.02 0 0 Z " fill="#0355FB" transform="translate(422,134)"/>
<path d="M0 0 C1.78701211 2.68051817 2.69012179 4.75630892 3.75 7.75 C5.45582158 12.16962863 7.54154787 15.24080177 10.828125 18.625 C12 20 12 20 12 22 C12.639375 22.28875 13.27875 22.5775 13.9375 22.875 C16 24 16 24 17 26 C11.35120004 24.63059395 8.22646753 20.5567423 5 16 C2.06671972 10.73626898 -0.36445192 6.12941863 0 0 Z " fill="#075CFA" transform="translate(581,124)"/>
<path d="M0 0 C-3 2 -3 2 -5.625 3.25 C-8.229639 4.83728552 -8.229639 4.83728552 -9.0625 7.8125 C-8.98186881 11.92469049 -7.50076373 13.81720979 -5 17 C-6.875 16.6875 -6.875 16.6875 -9 16 C-11.45700792 12.31448812 -11.80737582 9.27825949 -11 5 C-7.78053133 0.45486776 -5.5148998 -0.64126742 0 0 Z " fill="#065EFD" transform="translate(242,186)"/>
<path d="M0 0 C7.07954504 1.59289763 12.38289143 6.46507465 16.5625 12.25 C17.036875 13.1575 17.51125 14.065 18 15 C17.67 15.99 17.34 16.98 17 18 C16.69449219 17.443125 16.38898438 16.88625 16.07421875 16.3125 C12.379981 10.15196831 8.13729914 6.52426502 2.1953125 2.53125 C1.47085937 2.0259375 0.74640625 1.520625 0 1 C0 0.67 0 0.34 0 0 Z " fill="#0458FC" transform="translate(462,95)"/>
<path d="M0 0 C4.34069676 -0.65110451 6.7083839 0.15553497 10.1875 2.625 C13.55005204 5.34982665 15.60525617 7.81576852 17 12 C16.67 12.99 16.34 13.98 16 15 C15.63648438 14.39671875 15.27296875 13.7934375 14.8984375 13.171875 C10.87717768 6.77910297 6.90503385 3.1869387 0 0 Z " fill="#1269FC" transform="translate(623,87)"/>
<path d="M0 0 C0 0.99 0 1.98 0 3 C-0.33 3.33 -0.66 3.66 -1 4 C-1.41692853 7.41600593 -1.41692853 7.41600593 -1 11 C0.86124923 12.98239527 0.86124923 12.98239527 3 14 C-1 14 -1 14 -2.75 12.9375 C-4.72344172 9.87866533 -4.43535767 7.54505532 -4 4 C-2 1.5625 -2 1.5625 0 0 Z " fill="#0A5FFC" transform="translate(142,84)"/>
<path d="M0 0 C1.79447617 2.20231167 3.00262953 4.00706686 4 6.6875 C4.33 7.450625 4.66 8.21375 5 9 C5.99 9.33 6.98 9.66 8 10 C8 10.66 8 11.32 8 12 C8.639375 12.28875 9.27875 12.5775 9.9375 12.875 C12 14 12 14 13 16 C7.77204763 14.61613025 5.05057385 11.24038711 2 7 C0.44157056 4.29734163 0 3.19352345 0 0 Z " fill="#095CFB" transform="translate(401,83)"/>
<path d="M0 0 C0.99 0.33 1.98 0.66 3 1 C2.113125 1.66 1.22625 2.32 0.3125 3 C-3.42023803 6.07662731 -5.65550011 9.81932099 -8 14 C-8.33 13.01 -8.66 12.02 -9 11 C-7.890625 9.0625 -7.890625 9.0625 -6.25 7 C-5.71890625 6.319375 -5.1878125 5.63875 -4.640625 4.9375 C-3.16607624 3.19612814 -1.64193685 1.58258974 0 0 Z " fill="#035AFC" transform="translate(594,79)"/>
<path d="M0 0 C2.60334924 2.71182212 2.99456691 3.89133813 3.1875 7.75 C3.0946875 9.35875 3.0946875 9.35875 3 11 C0.43383368 7.15075052 0.44902324 4.5650696 0 0 Z " fill="#0255FB" transform="translate(186,54)"/>
</svg>
