<?xml version="1.0" standalone="no"?>
<!DOCTYPE svg PUBLIC "-//W3C//DTD SVG 20010904//EN"
 "http://www.w3.org/TR/2001/REC-SVG-20010904/DTD/svg10.dtd">
<svg version="1.0" xmlns="http://www.w3.org/2000/svg"
 width="1253.000000pt" height="218.000000pt" viewBox="0 0 1253.000000 218.000000"
 preserveAspectRatio="xMidYMid meet">

<g transform="translate(0.000000,218.000000) scale(0.100000,-0.100000)"
fill="#000000" stroke="none">
<path d="M1395 2148 c-49 -27 -70 -91 -45 -139 23 -42 59 -49 249 -49 163 0
180 -2 185 -17 2 -10 64 -267 137 -572 102 -429 129 -558 120 -570 -40 -56
-54 -99 -54 -161 1 -118 56 -213 156 -265 l54 -29 -13 -33 c-18 -41 -18 -124
-1 -166 48 -112 172 -170 287 -132 129 43 189 180 135 307 -7 17 4 18 154 18
l161 0 -7 -28 c-5 -15 -8 -52 -8 -82 0 -140 127 -248 264 -225 130 22 221 170
178 293 l-15 42 33 16 c61 29 71 117 17 152 -24 16 -70 17 -577 13 -427 -3
-557 -1 -576 9 -68 35 -91 86 -64 143 l16 34 592 8 c642 8 632 7 661 63 17 33
166 819 166 875 0 26 -8 46 -29 69 l-29 33 -759 -3 -758 -3 -38 160 c-41 174
-60 211 -124 237 -41 18 -437 19 -468 2z m2025 -575 c0 -5 -9 -53 -19 -108
-10 -55 -22 -117 -25 -137 l-7 -38 -147 0 -147 0 14 140 15 139 55 4 c113 7
261 7 261 0z m-978 -98 c3 -49 7 -111 9 -137 l3 -47 -162 -6 -162 -5 -5 22
c-3 13 -18 78 -34 146 l-28 122 186 -2 186 -3 7 -90z m513 68 c-6 -34 -25
-216 -25 -238 0 -13 -23 -15 -164 -15 l-164 0 -6 83 c-4 45 -9 108 -12 140
l-6 57 191 0 191 0 -5 -27z m384 -405 c0 -13 -10 -72 -22 -133 l-22 -110 -133
-3 c-102 -2 -132 0 -132 10 0 25 22 233 25 246 3 9 41 12 145 12 139 0 140 0
139 -22z m-865 -75 c4 -49 9 -109 12 -135 l6 -48 -135 0 -134 0 -27 113 c-14
61 -29 122 -32 135 l-6 22 155 0 155 0 6 -87z m433 30 c-4 -32 -9 -91 -13
-130 l-7 -73 -127 0 -128 0 -6 103 c-4 56 -9 114 -12 130 l-6 27 152 0 153 0
-6 -57z m-451 -814 c10 -11 17 -32 17 -49 0 -82 -112 -104 -144 -28 -31 75 72
137 127 77z m728 1 c37 -36 20 -101 -31 -121 -42 -16 -102 21 -103 63 -1 74
81 110 134 58z"/>
<path d="M8229 1795 c-63 -34 -80 -128 -34 -184 49 -58 126 -62 182 -9 102 96
-24 261 -148 193z"/>
<path d="M4296 1759 c-123 -18 -224 -88 -273 -187 -23 -47 -28 -70 -27 -132 1
-182 102 -271 368 -325 72 -15 150 -36 174 -48 113 -52 109 -192 -6 -249 -38
-19 -63 -23 -132 -23 -128 0 -198 41 -227 130 l-10 30 -101 3 -101 3 6 -38
c25 -176 209 -303 440 -303 144 0 246 40 327 130 106 117 112 283 16 393 -57
65 -138 101 -303 137 -204 44 -247 72 -247 160 0 96 64 145 190 144 105 0 181
-43 209 -116 10 -28 11 -28 102 -28 l91 0 -7 38 c-36 196 -246 317 -489 281z"/>
<path d="M4950 1200 l0 -570 100 0 100 0 0 253 c0 145 5 268 11 290 31 114
172 163 259 90 59 -49 60 -56 60 -358 l0 -275 101 0 101 0 -4 303 c-5 336 -9
360 -74 435 -70 83 -206 120 -316 88 -44 -13 -65 -26 -97 -62 l-41 -47 0 212
0 211 -100 0 -100 0 0 -570z"/>
<path d="M10840 1567 l0 -204 -45 43 c-55 53 -104 68 -206 62 -138 -8 -238
-79 -302 -216 -28 -59 -32 -79 -35 -173 -6 -164 27 -264 121 -366 60 -66 135
-98 227 -98 90 1 150 26 204 86 l36 39 0 -55 0 -55 95 0 95 0 0 570 0 570 -95
0 -95 0 0 -203z m-99 -290 c49 -33 75 -78 89 -154 22 -130 -16 -262 -90 -311
-30 -20 -45 -23 -101 -20 -121 6 -179 78 -187 228 -6 129 23 207 97 257 48 32
144 32 192 0z"/>
<path d="M6750 1190 l0 -560 100 0 100 0 0 235 0 235 210 0 210 0 0 90 0 90
-210 0 -210 0 0 140 0 140 249 0 249 0 1 95 2 95 -351 0 -350 0 0 -560z"/>
<path d="M1313 1624 c-20 -20 -24 -31 -19 -57 12 -61 30 -67 206 -67 139 0
160 2 181 19 32 26 32 86 0 112 -21 17 -42 19 -183 19 -157 0 -159 0 -185 -26z"/>
<path d="M6075 1453 c-162 -58 -253 -172 -275 -344 -25 -203 59 -379 218 -455
73 -36 218 -45 303 -20 112 32 207 121 250 233 30 81 38 228 14 309 -37 130
-98 203 -212 257 -85 39 -219 48 -298 20z m234 -177 c27 -19 50 -48 68 -85 25
-49 28 -67 28 -151 0 -82 -4 -102 -25 -144 -35 -69 -87 -108 -149 -114 -74 -7
-118 5 -161 44 -96 87 -109 300 -25 411 60 77 182 95 264 39z"/>
<path d="M7874 1456 c-16 -7 -47 -33 -67 -57 l-37 -43 0 52 0 52 -95 0 -95 0
0 -415 0 -415 100 0 100 0 0 258 c0 247 1 260 23 302 12 25 38 55 57 68 32 22
43 23 123 20 l88 -4 -3 95 -3 96 -80 2 c-50 2 -91 -2 -111 -11z"/>
<path d="M8805 1461 c-58 -15 -133 -61 -175 -108 -152 -171 -142 -491 22 -638
183 -164 459 -130 590 74 43 69 41 71 -65 71 -88 0 -95 -2 -118 -26 -36 -39
-72 -54 -131 -54 -106 0 -191 75 -205 181 l-6 42 283 -7 283 -7 -5 98 c-6 109
-27 177 -77 244 -39 54 -112 106 -175 124 -51 16 -169 18 -221 6z m182 -170
c46 -21 87 -75 98 -128 l7 -33 -187 0 -186 0 7 23 c12 39 41 91 61 109 53 48
132 59 200 29z"/>
<path d="M9704 1451 c-22 -10 -56 -37 -76 -61 l-37 -42 6 56 6 56 -102 0 -101
0 0 -415 0 -415 100 0 100 0 0 253 c0 153 4 268 11 292 31 109 168 161 253 94
58 -46 61 -59 64 -361 l3 -278 95 0 95 0 -3 313 -3 312 -28 57 c-33 67 -91
121 -155 142 -63 22 -176 20 -228 -3z"/>
<path d="M8190 1046 l0 -415 100 -3 100 -3 0 418 0 417 -100 0 -100 0 0 -414z"/>
<path d="M1402 1317 c-31 -33 -29 -80 4 -106 24 -19 40 -21 174 -21 134 0 150
2 174 21 33 26 36 79 6 109 -18 18 -33 20 -178 20 -153 0 -159 -1 -180 -23z"/>
<path d="M1510 1010 c-25 -25 -26 -71 -1 -101 18 -23 25 -24 148 -24 153 -1
188 9 198 55 5 24 2 39 -13 59 -19 26 -20 26 -165 29 -136 2 -148 1 -167 -18z"/>
</g>
</svg>
